# xmcd
#
# Track frame offsets:
#	150
#	17247
#	33846
#	48268
#	62573
#	77776
#	96260
#	110849
#	126723
#	141958
#	154037
#	169645
#	185274
#	216643
#
# Disc length: 3256 seconds
#
# Revision: 2
# Processed by: cddbd v1.5.2PL0 Copyright (c) Steve Scherf et al.
# Submitted via: audiograbber 1.83.01
#
DISCID=c90cb60e
DTITLE=Pascal Krieger - Ich bin bereit (LC 11857)
DYEAR=2005
DGENRE=Deutsch
TTITLE0=13 Tage
TTITLE1=Ich bin bereit
TTITLE2=Für heut und für immer
TTITLE3=Es gibt keine Chance
TTITLE4=Das Salz der Erde
TTITLE5=Ich liebe dich
TTITLE6=Sommer Holiday
TTITLE7=Herzen in Flammen
TTITLE8=Komm flieg mit mir nach Ibiza
TTITLE9=Gipfelstürmer
TTITLE10=Nun sag schon adieu
TTITLE11=Ich vermiss die Zeit
TTITLE12=Kult Hitmix
TTITLE13=Videoclip
EXTD=
EXTT0=
EXTT1=
EXTT2=
EXTT3=
EXTT4=
EXTT5=
EXTT6=
EXTT7=
EXTT8=
EXTT9=
EXTT10=
EXTT11=
EXTT12=
EXTT13=
PLAYORDER=
